<?xml version="1.0" encoding="UTF-8"?>
<svg width="752pt" height="752pt" version="1.1" viewBox="0 0 752 752" xmlns="http://www.w3.org/2000/svg">
 <g>
  <rect width="752" height="752" fill="#fff"/>
  <path d="m200.78 172.36c-15.66 0-28.414 12.754-28.414 28.414v132.6c0 15.66 12.754 28.414 28.414 28.414h132.6c15.66 0 28.414-12.754 28.414-28.414v-132.6c0-15.66-12.754-28.414-28.414-28.414zm0 9.4688h132.6c10.578 0 18.945 8.3672 18.945 18.945v132.6c0 10.578-8.3672 18.945-18.945 18.945h-132.6c-10.578 0-18.945-8.3672-18.945-18.945v-132.6c0-10.578 8.3672-18.945 18.945-18.945zm283.55 18.797c-2.4375 0.30469-4.2383 2.4258-4.1445 4.8828v56.832h-56.828c-0.29688-0.03125-0.59375-0.03125-0.88672 0-2.6172 0.24219-4.5391 2.5625-4.293 5.1797 0.24609 2.6133 2.5625 4.5352 5.1797 4.2891h56.828v56.832c-0.015625 1.2656 0.47656 2.4883 1.3633 3.3906 0.89062 0.90234 2.1055 1.4102 3.375 1.4102 1.2656 0 2.4805-0.50781 3.3711-1.4102s1.3828-2.125 1.3633-3.3906v-56.832h56.832c1.2656 0.019531 2.4883-0.47266 3.3906-1.3633 0.90234-0.89062 1.4102-2.1055 1.4102-3.3711 0-1.2695-0.50781-2.4844-1.4102-3.3711-0.90234-0.89062-2.125-1.3828-3.3906-1.3633h-56.832v-56.832c0.054688-1.3906-0.50391-2.7344-1.5312-3.6758-1.0273-0.94141-2.4141-1.3828-3.7969-1.207zm-283.55 189.58c-15.66 0-28.414 12.758-28.414 28.418v132.6c0 15.66 12.754 28.414 28.414 28.414h132.6c15.66 0 28.414-12.754 28.414-28.414v-132.6c0-15.66-12.754-28.418-28.414-28.418zm217.85 0c-15.66 0-28.418 12.758-28.418 28.418v132.6c0 15.66 12.758 28.414 28.418 28.414h132.6c15.66 0 28.414-12.754 28.414-28.414v-132.6c0-15.66-12.754-28.418-28.414-28.418zm-217.85 9.4727h132.6c10.578 0 18.945 8.3672 18.945 18.945v132.6c0 10.578-8.3672 18.941-18.945 18.941h-132.6c-10.578 0-18.945-8.3633-18.945-18.941v-132.6c0-10.578 8.3672-18.945 18.945-18.945zm217.85 0h132.6c10.578 0 18.941 8.3672 18.941 18.945v132.6c0 10.578-8.3633 18.941-18.941 18.941h-132.6c-10.578 0-18.945-8.3633-18.945-18.941v-132.6c0-10.578 8.3672-18.945 18.945-18.945z"/>
 </g>
</svg>
